<svg width="34" height="34" viewBox="0 0 34 34" fill="none" xmlns="http://www.w3.org/2000/svg">
<path d="M24.0834 2.83325H9.91671C6.00469 2.83325 2.83337 6.00457 2.83337 9.91659V24.0833C2.83337 27.9953 6.00469 31.1666 9.91671 31.1666H24.0834C27.9954 31.1666 31.1667 27.9953 31.1667 24.0833V9.91659C31.1667 6.00457 27.9954 2.83325 24.0834 2.83325Z" stroke="#F9FBFB" stroke-width="2" stroke-linecap="round" stroke-linejoin="round"/>
<path d="M22.6667 16.1074C22.8415 17.2865 22.6401 18.4906 22.0912 19.5485C21.5422 20.6065 20.6737 21.4644 19.609 22.0003C18.5443 22.5362 17.3378 22.7227 16.1611 22.5333C14.9843 22.344 13.8972 21.7884 13.0544 20.9456C12.2116 20.1028 11.656 19.0157 11.4666 17.8389C11.2773 16.6621 11.4638 15.4556 11.9997 14.391C12.5355 13.3263 13.3935 12.4577 14.4514 11.9088C15.5094 11.3598 16.7135 11.1584 17.8925 11.3333C19.0952 11.5116 20.2086 12.072 21.0683 12.9317C21.928 13.7914 22.4884 14.9048 22.6667 16.1074Z" stroke="#F9FBFB" stroke-width="2" stroke-linecap="round" stroke-linejoin="round"/>
<path d="M24.7916 9.20825H24.8058" stroke="#F9FBFB" stroke-width="2" stroke-linecap="round" stroke-linejoin="round"/>
</svg>
