<svg width="34" height="34" viewBox="0 0 34 34" fill="none" xmlns="http://www.w3.org/2000/svg">
<path d="M22.6667 11.3333C24.921 11.3333 27.0831 12.2288 28.6771 13.8228C30.2712 15.4169 31.1667 17.5789 31.1667 19.8333V29.7499H25.5V19.8333C25.5 19.0818 25.2015 18.3611 24.6702 17.8298C24.1388 17.2984 23.4182 16.9999 22.6667 16.9999C21.9153 16.9999 21.1946 17.2984 20.6632 17.8298C20.1319 18.3611 19.8334 19.0818 19.8334 19.8333V29.7499H14.1667V19.8333C14.1667 17.5789 15.0622 15.4169 16.6563 13.8228C18.2504 12.2288 20.4124 11.3333 22.6667 11.3333Z" stroke="#F9FBFB" stroke-width="2" stroke-linecap="round" stroke-linejoin="round"/>
<path d="M8.50004 12.7499H2.83337V29.7499H8.50004V12.7499Z" stroke="#F9FBFB" stroke-width="2" stroke-linecap="round" stroke-linejoin="round"/>
<path d="M5.66671 8.49992C7.23151 8.49992 8.50004 7.23139 8.50004 5.66659C8.50004 4.10178 7.23151 2.83325 5.66671 2.83325C4.1019 2.83325 2.83337 4.10178 2.83337 5.66659C2.83337 7.23139 4.1019 8.49992 5.66671 8.49992Z" stroke="#F9FBFB" stroke-width="2" stroke-linecap="round" stroke-linejoin="round"/>
</svg>
