<svg width="34" height="34" viewBox="0 0 34 34" fill="none" xmlns="http://www.w3.org/2000/svg">
<path d="M11.1917 28.3332C13.8955 29.7202 17.0058 30.0959 19.9621 29.3926C22.9184 28.6893 25.5263 26.9532 27.3159 24.4972C29.1054 22.0411 29.9589 19.0267 29.7225 15.9971C29.4862 12.9675 28.1755 10.1219 26.0268 7.97318C23.878 5.82441 21.0324 4.51376 18.0028 4.27741C14.9732 4.04106 11.9588 4.89455 9.50279 6.68409C7.04678 8.47362 5.31069 11.0815 4.60736 14.0378C3.90403 16.9941 4.27971 20.1044 5.66671 22.8082L2.83337 31.1666L11.1917 28.3332Z" stroke="#F9FBFB" stroke-width="2" stroke-linecap="round" stroke-linejoin="round"/>
<g clip-path="url(#clip0_119_1614)">
<path d="M24.0834 20.4849V22.6099C24.0842 22.8072 24.0438 23.0024 23.9647 23.1832C23.8857 23.3639 23.7698 23.5262 23.6244 23.6596C23.4791 23.7929 23.3075 23.8945 23.1206 23.9577C22.9337 24.0209 22.7357 24.0443 22.5392 24.0266C20.3596 23.7897 18.2658 23.0449 16.4263 21.852C14.7148 20.7645 13.2638 19.3134 12.1763 17.602C10.9792 15.7541 10.2342 13.6502 10.0017 11.4607C9.98402 11.2649 10.0073 11.0674 10.0701 10.8811C10.1329 10.6947 10.2338 10.5234 10.3663 10.3781C10.4989 10.2329 10.6603 10.1168 10.8402 10.0374C11.0201 9.95789 11.2146 9.91676 11.4113 9.91657H13.5363C13.8801 9.91319 14.2133 10.0349 14.474 10.2591C14.7346 10.4832 14.9049 10.7945 14.953 11.1349C15.0427 11.815 15.209 12.4827 15.4488 13.1253C15.5441 13.3789 15.5647 13.6544 15.5082 13.9193C15.4517 14.1842 15.3205 14.4273 15.1301 14.6199L14.2305 15.5195C15.2388 17.2928 16.7071 18.7611 18.4805 19.7695L19.3801 18.8699C19.5726 18.6795 19.8158 18.5482 20.0807 18.4917C20.3456 18.4352 20.6211 18.4559 20.8746 18.5512C21.5173 18.791 22.185 18.9573 22.8651 19.047C23.2091 19.0955 23.5234 19.2688 23.748 19.534C23.9726 19.7991 24.092 20.1375 24.0834 20.4849Z" stroke="#F9FBFB" stroke-width="2" stroke-linecap="round" stroke-linejoin="round"/>
</g>
<defs>
<clipPath id="clip0_119_1614">
<rect width="17" height="17" fill="white" transform="translate(8.5 8.5)"/>
</clipPath>
</defs>
</svg>
